<svg xmlns="http://www.w3.org/2000/svg" version="1.1" xmlns:xlink="http://www.w3.org/1999/xlink" xmlns:svgjs="http://svgjs.com/svgjs" width="1440" height="560" preserveAspectRatio="none" viewBox="0 0 1440 560"><g mask="url(&quot;#SvgjsMask1234&quot;)" fill="none"><rect width="1440" height="560" x="0" y="0" fill="url(#SvgjsLinearGradient1235)"></rect><path d="M-91.48 367.15L-91.48 367.15" stroke="#132e65" stroke-width="1.5"></path><path d="M-91.48 367.15L-58.99 520.76" stroke="#132e65" stroke-width="1.5"></path><path d="M-58.99 520.76L-58.99 520.76" stroke="#132e65" stroke-width="1.5"></path><path d="M-58.99 520.76L54.17 558.43" stroke="#132e65" stroke-width="1.5"></path><path d="M-58.99 520.76L-74.78 644.67" stroke="#132e65" stroke-width="1.5"></path><path d="M-58.99 520.76L53.72 677.26" stroke="#132e65" stroke-width="1.5"></path><path d="M-74.78 644.67L-74.78 644.67" stroke="#132e65" stroke-width="1.5"></path><path d="M-74.78 644.67L53.72 677.26" stroke="#132e65" stroke-width="1.5"></path><path d="M80.62 342.46L80.62 342.46" stroke="#132e65" stroke-width="1.5"></path><path d="M80.62 342.46L242.68 362.53" stroke="#132e65" stroke-width="1.5"></path><path d="M80.62 342.46L-91.48 367.15" stroke="#132e65" stroke-width="1.5"></path><path d="M54.17 558.43L54.17 558.43" stroke="#132e65" stroke-width="1.5"></path><path d="M54.17 558.43L53.72 677.26" stroke="#132e65" stroke-width="1.5"></path><path d="M53.72 677.26L53.72 677.26" stroke="#132e65" stroke-width="1.5"></path><path d="M53.72 677.26L221.25 659" stroke="#132e65" stroke-width="1.5"></path><path d="M53.72 677.26L213.36 554.1" stroke="#132e65" stroke-width="1.5"></path><path d="M53.72 677.26L353.1 699.48" stroke="#132e65" stroke-width="1.5"></path><path d="M242.68 362.53L242.68 362.53" stroke="#132e65" stroke-width="1.5"></path><path d="M242.68 362.53L390.29 360.04" stroke="#132e65" stroke-width="1.5"></path><path d="M213.36 554.1L213.36 554.1" stroke="#132e65" stroke-width="1.5"></path><path d="M213.36 554.1L221.25 659" stroke="#132e65" stroke-width="1.5"></path><path d="M213.36 554.1L360.63 511" stroke="#132e65" stroke-width="1.5"></path><path d="M213.36 554.1L54.17 558.43" stroke="#132e65" stroke-width="1.5"></path><path d="M221.25 659L221.25 659" stroke="#132e65" stroke-width="1.5"></path><path d="M221.25 659L353.1 699.48" stroke="#132e65" stroke-width="1.5"></path><path d="M390.29 360.04L390.29 360.04" stroke="#132e65" stroke-width="1.5"></path><path d="M390.29 360.04L491.34 396.3" stroke="#132e65" stroke-width="1.5"></path><path d="M390.29 360.04L360.63 511" stroke="#132e65" stroke-width="1.5"></path><path d="M390.29 360.04L529.25 534.94" stroke="#132e65" stroke-width="1.5"></path><path d="M360.63 511L360.63 511" stroke="#132e65" stroke-width="1.5"></path><path d="M360.63 511L529.25 534.94" stroke="#132e65" stroke-width="1.5"></path><path d="M353.1 699.48L353.1 699.48" stroke="#132e65" stroke-width="1.5"></path><path d="M353.1 699.48L504.51 699.74" stroke="#132e65" stroke-width="1.5"></path><path d="M353.1 699.48L360.63 511" stroke="#132e65" stroke-width="1.5"></path><path d="M491.34 396.3L491.34 396.3" stroke="#132e65" stroke-width="1.5"></path><path d="M529.25 534.94L529.25 534.94" stroke="#132e65" stroke-width="1.5"></path><path d="M529.25 534.94L668.18 508.52" stroke="#132e65" stroke-width="1.5"></path><path d="M529.25 534.94L491.34 396.3" stroke="#132e65" stroke-width="1.5"></path><path d="M529.25 534.94L504.51 699.74" stroke="#132e65" stroke-width="1.5"></path><path d="M504.51 699.74L504.51 699.74" stroke="#132e65" stroke-width="1.5"></path><path d="M504.51 699.74L708.73 686.68" stroke="#132e65" stroke-width="1.5"></path><path d="M504.51 699.74L360.63 511" stroke="#132e65" stroke-width="1.5"></path><path d="M504.51 699.74L668.18 508.52" stroke="#132e65" stroke-width="1.5"></path><path d="M681.29 410.77L681.29 410.77" stroke="#132e65" stroke-width="1.5"></path><path d="M681.29 410.77L668.18 508.52" stroke="#132e65" stroke-width="1.5"></path><path d="M681.29 410.77L788.29 357.49" stroke="#132e65" stroke-width="1.5"></path><path d="M681.29 410.77L826.41 530.09" stroke="#132e65" stroke-width="1.5"></path><path d="M681.29 410.77L491.34 396.3" stroke="#132e65" stroke-width="1.5"></path><path d="M668.18 508.52L668.18 508.52" stroke="#132e65" stroke-width="1.5"></path><path d="M668.18 508.52L826.41 530.09" stroke="#132e65" stroke-width="1.5"></path><path d="M668.18 508.52L708.73 686.68" stroke="#132e65" stroke-width="1.5"></path><path d="M708.73 686.68L708.73 686.68" stroke="#132e65" stroke-width="1.5"></path><path d="M708.73 686.68L843.34 660.6" stroke="#132e65" stroke-width="1.5"></path><path d="M708.73 686.68L826.41 530.09" stroke="#132e65" stroke-width="1.5"></path><path d="M708.73 686.68L938.49 678.42" stroke="#132e65" stroke-width="1.5"></path><path d="M708.73 686.68L529.25 534.94" stroke="#132e65" stroke-width="1.5"></path><path d="M851.95 241.98L851.95 241.98" stroke="#132e65" stroke-width="1.5"></path><path d="M851.95 241.98L788.29 357.49" stroke="#132e65" stroke-width="1.5"></path><path d="M851.95 241.98L1006.63 364.72" stroke="#132e65" stroke-width="1.5"></path><path d="M851.95 241.98L1006.63 71.52" stroke="#132e65" stroke-width="1.5"></path><path d="M851.95 241.98L681.29 410.77" stroke="#132e65" stroke-width="1.5"></path><path d="M851.95 241.98L1101.59 253.75" stroke="#132e65" stroke-width="1.5"></path><path d="M788.29 357.49L788.29 357.49" stroke="#132e65" stroke-width="1.5"></path><path d="M788.29 357.49L826.41 530.09" stroke="#132e65" stroke-width="1.5"></path><path d="M788.29 357.49L668.18 508.52" stroke="#132e65" stroke-width="1.5"></path><path d="M826.41 530.09L826.41 530.09" stroke="#132e65" stroke-width="1.5"></path><path d="M826.41 530.09L843.34 660.6" stroke="#132e65" stroke-width="1.5"></path><path d="M826.41 530.09L938.49 678.42" stroke="#132e65" stroke-width="1.5"></path><path d="M826.41 530.09L1010.63 560.24" stroke="#132e65" stroke-width="1.5"></path><path d="M843.34 660.6L843.34 660.6" stroke="#132e65" stroke-width="1.5"></path><path d="M843.34 660.6L938.49 678.42" stroke="#132e65" stroke-width="1.5"></path><path d="M947.61 -111.07L947.61 -111.07" stroke="#132e65" stroke-width="1.5"></path><path d="M947.61 -111.07L1006.63 71.52" stroke="#132e65" stroke-width="1.5"></path><path d="M947.61 -111.07L1150.86 -109.74" stroke="#132e65" stroke-width="1.5"></path><path d="M947.61 -111.07L1118.08 100.46" stroke="#132e65" stroke-width="1.5"></path><path d="M947.61 -111.07L1298.79 -85.04" stroke="#132e65" stroke-width="1.5"></path><path d="M1006.63 71.52L1006.63 71.52" stroke="#132e65" stroke-width="1.5"></path><path d="M1006.63 71.52L1118.08 100.46" stroke="#132e65" stroke-width="1.5"></path><path d="M1006.63 71.52L1101.59 253.75" stroke="#132e65" stroke-width="1.5"></path><path d="M1006.63 71.52L1150.86 -109.74" stroke="#132e65" stroke-width="1.5"></path><path d="M1006.63 71.52L1270.21 39.42" stroke="#132e65" stroke-width="1.5"></path><path d="M1006.63 364.72L1006.63 364.72" stroke="#132e65" stroke-width="1.5"></path><path d="M1006.63 364.72L1127.11 371.18" stroke="#132e65" stroke-width="1.5"></path><path d="M1006.63 364.72L1101.59 253.75" stroke="#132e65" stroke-width="1.5"></path><path d="M1006.63 364.72L1010.63 560.24" stroke="#132e65" stroke-width="1.5"></path><path d="M1006.63 364.72L1133.28 537.25" stroke="#132e65" stroke-width="1.5"></path><path d="M1010.63 560.24L1010.63 560.24" stroke="#132e65" stroke-width="1.5"></path><path d="M1010.63 560.24L1133.28 537.25" stroke="#132e65" stroke-width="1.5"></path><path d="M1010.63 560.24L1114.96 642.54" stroke="#132e65" stroke-width="1.5"></path><path d="M1010.63 560.24L938.49 678.42" stroke="#132e65" stroke-width="1.5"></path><path d="M938.49 678.42L938.49 678.42" stroke="#132e65" stroke-width="1.5"></path><path d="M938.49 678.42L1114.96 642.54" stroke="#132e65" stroke-width="1.5"></path><path d="M938.49 678.42L1133.28 537.25" stroke="#132e65" stroke-width="1.5"></path><path d="M1150.86 -109.74L1150.86 -109.74" stroke="#132e65" stroke-width="1.5"></path><path d="M1150.86 -109.74L1298.79 -85.04" stroke="#132e65" stroke-width="1.5"></path><path d="M1150.86 -109.74L1270.21 39.42" stroke="#132e65" stroke-width="1.5"></path><path d="M1118.08 100.46L1118.08 100.46" stroke="#132e65" stroke-width="1.5"></path><path d="M1118.08 100.46L1101.59 253.75" stroke="#132e65" stroke-width="1.5"></path><path d="M1118.08 100.46L1270.21 39.42" stroke="#132e65" stroke-width="1.5"></path><path d="M1101.59 253.75L1101.59 253.75" stroke="#132e65" stroke-width="1.5"></path><path d="M1101.59 253.75L1127.11 371.18" stroke="#132e65" stroke-width="1.5"></path><path d="M1127.11 371.18L1127.11 371.18" stroke="#132e65" stroke-width="1.5"></path><path d="M1133.28 537.25L1133.28 537.25" stroke="#132e65" stroke-width="1.5"></path><path d="M1133.28 537.25L1114.96 642.54" stroke="#132e65" stroke-width="1.5"></path><path d="M1133.28 537.25L1247.04 489.72" stroke="#132e65" stroke-width="1.5"></path><path d="M1114.96 642.54L1114.96 642.54" stroke="#132e65" stroke-width="1.5"></path><path d="M1298.79 -85.04L1298.79 -85.04" stroke="#132e65" stroke-width="1.5"></path><path d="M1298.79 -85.04L1270.21 39.42" stroke="#132e65" stroke-width="1.5"></path><path d="M1270.21 39.42L1270.21 39.42" stroke="#132e65" stroke-width="1.5"></path><path d="M1270.21 39.42L1436.26 97.79" stroke="#132e65" stroke-width="1.5"></path><path d="M1270.21 39.42L1271.36 231.8" stroke="#132e65" stroke-width="1.5"></path><path d="M1270.21 39.42L1450.85 -81.41" stroke="#132e65" stroke-width="1.5"></path><path d="M1271.36 231.8L1271.36 231.8" stroke="#132e65" stroke-width="1.5"></path><path d="M1271.36 231.8L1293.57 362.02" stroke="#132e65" stroke-width="1.5"></path><path d="M1271.36 231.8L1101.59 253.75" stroke="#132e65" stroke-width="1.5"></path><path d="M1271.36 231.8L1462.44 192.34" stroke="#132e65" stroke-width="1.5"></path><path d="M1293.57 362.02L1293.57 362.02" stroke="#132e65" stroke-width="1.5"></path><path d="M1293.57 362.02L1247.04 489.72" stroke="#132e65" stroke-width="1.5"></path><path d="M1293.57 362.02L1431.63 383.23" stroke="#132e65" stroke-width="1.5"></path><path d="M1247.04 489.72L1247.04 489.72" stroke="#132e65" stroke-width="1.5"></path><path d="M1247.04 489.72L1127.11 371.18" stroke="#132e65" stroke-width="1.5"></path><path d="M1247.04 489.72L1302.85 676.44" stroke="#132e65" stroke-width="1.5"></path><path d="M1302.85 676.44L1302.85 676.44" stroke="#132e65" stroke-width="1.5"></path><path d="M1302.85 676.44L1392.96 675.49" stroke="#132e65" stroke-width="1.5"></path><path d="M1302.85 676.44L1432.35 553.64" stroke="#132e65" stroke-width="1.5"></path><path d="M1302.85 676.44L1114.96 642.54" stroke="#132e65" stroke-width="1.5"></path><path d="M1302.85 676.44L1133.28 537.25" stroke="#132e65" stroke-width="1.5"></path><path d="M1302.85 676.44L1010.63 560.24" stroke="#132e65" stroke-width="1.5"></path><path d="M1450.85 -81.41L1450.85 -81.41" stroke="#132e65" stroke-width="1.5"></path><path d="M1450.85 -81.41L1575.9 -45" stroke="#132e65" stroke-width="1.5"></path><path d="M1450.85 -81.41L1298.79 -85.04" stroke="#132e65" stroke-width="1.5"></path><path d="M1450.85 -81.41L1436.26 97.79" stroke="#132e65" stroke-width="1.5"></path><path d="M1450.85 -81.41L1596.69 93.85" stroke="#132e65" stroke-width="1.5"></path><path d="M1436.26 97.79L1436.26 97.79" stroke="#132e65" stroke-width="1.5"></path><path d="M1436.26 97.79L1462.44 192.34" stroke="#132e65" stroke-width="1.5"></path><path d="M1436.26 97.79L1596.69 93.85" stroke="#132e65" stroke-width="1.5"></path><path d="M1436.26 97.79L1569.99 196.51" stroke="#132e65" stroke-width="1.5"></path><path d="M1462.44 192.34L1462.44 192.34" stroke="#132e65" stroke-width="1.5"></path><path d="M1462.44 192.34L1569.99 196.51" stroke="#132e65" stroke-width="1.5"></path><path d="M1462.44 192.34L1596.69 93.85" stroke="#132e65" stroke-width="1.5"></path><path d="M1462.44 192.34L1431.63 383.23" stroke="#132e65" stroke-width="1.5"></path><path d="M1462.44 192.34L1293.57 362.02" stroke="#132e65" stroke-width="1.5"></path><path d="M1431.63 383.23L1431.63 383.23" stroke="#132e65" stroke-width="1.5"></path><path d="M1431.63 383.23L1432.35 553.64" stroke="#132e65" stroke-width="1.5"></path><path d="M1431.63 383.23L1611.84 383.44" stroke="#132e65" stroke-width="1.5"></path><path d="M1432.35 553.64L1432.35 553.64" stroke="#132e65" stroke-width="1.5"></path><path d="M1432.35 553.64L1392.96 675.49" stroke="#132e65" stroke-width="1.5"></path><path d="M1432.35 553.64L1247.04 489.72" stroke="#132e65" stroke-width="1.5"></path><path d="M1392.96 675.49L1392.96 675.49" stroke="#132e65" stroke-width="1.5"></path><path d="M1392.96 675.49L1247.04 489.72" stroke="#132e65" stroke-width="1.5"></path><path d="M1392.96 675.49L1114.96 642.54" stroke="#132e65" stroke-width="1.5"></path><path d="M1575.9 -45L1575.9 -45" stroke="#132e65" stroke-width="1.5"></path><path d="M1575.9 -45L1596.69 93.85" stroke="#132e65" stroke-width="1.5"></path><path d="M1575.9 -45L1436.26 97.79" stroke="#132e65" stroke-width="1.5"></path><path d="M1575.9 -45L1569.99 196.51" stroke="#132e65" stroke-width="1.5"></path><path d="M1575.9 -45L1462.44 192.34" stroke="#132e65" stroke-width="1.5"></path><path d="M1596.69 93.85L1596.69 93.85" stroke="#132e65" stroke-width="1.5"></path><path d="M1596.69 93.85L1569.99 196.51" stroke="#132e65" stroke-width="1.5"></path><path d="M1569.99 196.51L1569.99 196.51" stroke="#132e65" stroke-width="1.5"></path><path d="M1611.84 383.44L1611.84 383.44" stroke="#132e65" stroke-width="1.5"></path><path d="M1611.84 383.44L1569.99 196.51" stroke="#132e65" stroke-width="1.5"></path><path d="M1611.84 383.44L1462.44 192.34" stroke="#132e65" stroke-width="1.5"></path><circle r="5" cx="-91.48" cy="367.15" fill="#132e65"></circle><circle r="5" cx="-58.99" cy="520.76" fill="#132e65"></circle><circle r="5" cx="-74.78" cy="644.67" fill="#132e65"></circle><circle r="5" cx="80.62" cy="342.46" fill="#132e65"></circle><circle r="5" cx="54.17" cy="558.43" fill="#132e65"></circle><circle r="5" cx="53.72" cy="677.26" fill="#132e65"></circle><circle r="5" cx="242.68" cy="362.53" fill="#132e65"></circle><circle r="5" cx="213.36" cy="554.1" fill="#132e65"></circle><circle r="5" cx="221.25" cy="659" fill="#132e65"></circle><circle r="5" cx="390.29" cy="360.04" fill="#132e65"></circle><circle r="5" cx="360.63" cy="511" fill="#132e65"></circle><circle r="5" cx="353.1" cy="699.48" fill="#132e65"></circle><circle r="5" cx="491.34" cy="396.3" fill="#132e65"></circle><circle r="5" cx="529.25" cy="534.94" fill="#132e65"></circle><circle r="5" cx="504.51" cy="699.74" fill="#132e65"></circle><circle r="5" cx="681.29" cy="410.77" fill="#132e65"></circle><circle r="5" cx="668.18" cy="508.52" fill="#132e65"></circle><circle r="5" cx="708.73" cy="686.68" fill="#132e65"></circle><circle r="5" cx="851.95" cy="241.98" fill="#132e65"></circle><circle r="5" cx="788.29" cy="357.49" fill="#132e65"></circle><circle r="5" cx="826.41" cy="530.09" fill="#132e65"></circle><circle r="5" cx="843.34" cy="660.6" fill="#132e65"></circle><circle r="5" cx="947.61" cy="-111.07" fill="#132e65"></circle><circle r="5" cx="1006.63" cy="71.52" fill="#132e65"></circle><circle r="5" cx="1006.63" cy="364.72" fill="#132e65"></circle><circle r="5" cx="1010.63" cy="560.24" fill="#132e65"></circle><circle r="5" cx="938.49" cy="678.42" fill="#132e65"></circle><circle r="5" cx="1150.86" cy="-109.74" fill="#132e65"></circle><circle r="5" cx="1118.08" cy="100.46" fill="#132e65"></circle><circle r="5" cx="1101.59" cy="253.75" fill="#132e65"></circle><circle r="5" cx="1127.11" cy="371.18" fill="#132e65"></circle><circle r="5" cx="1133.28" cy="537.25" fill="#132e65"></circle><circle r="5" cx="1114.96" cy="642.54" fill="#132e65"></circle><circle r="5" cx="1298.79" cy="-85.04" fill="#132e65"></circle><circle r="5" cx="1270.21" cy="39.42" fill="#132e65"></circle><circle r="5" cx="1271.36" cy="231.8" fill="#132e65"></circle><circle r="5" cx="1293.57" cy="362.02" fill="#132e65"></circle><circle r="5" cx="1247.04" cy="489.72" fill="#132e65"></circle><circle r="5" cx="1302.85" cy="676.44" fill="#132e65"></circle><circle r="5" cx="1450.85" cy="-81.41" fill="#132e65"></circle><circle r="5" cx="1436.26" cy="97.79" fill="#132e65"></circle><circle r="5" cx="1462.44" cy="192.34" fill="#132e65"></circle><circle r="5" cx="1431.63" cy="383.23" fill="#132e65"></circle><circle r="5" cx="1432.35" cy="553.64" fill="#132e65"></circle><circle r="5" cx="1392.96" cy="675.49" fill="#132e65"></circle><circle r="5" cx="1575.9" cy="-45" fill="#132e65"></circle><circle r="5" cx="1596.69" cy="93.85" fill="#132e65"></circle><circle r="5" cx="1569.99" cy="196.51" fill="#132e65"></circle><circle r="5" cx="1611.84" cy="383.44" fill="#132e65"></circle><path d="M200.85 704.41L200.85 704.41" stroke="hsl(228, 85%, 37.5%)" stroke-width="1.5"></path><path d="M200.85 704.41L361.1 663.97" stroke="hsl(228, 85%, 37.5%)" stroke-width="1.5"></path><path d="M200.85 704.41L224.05 511.87" stroke="hsl(228, 85%, 37.5%)" stroke-width="1.5"></path><path d="M200.85 704.41L-37.91 655.73" stroke="hsl(228, 85%, 37.5%)" stroke-width="1.5"></path><path d="M849.48 345.55L849.48 345.55" stroke="hsl(228, 85%, 37.5%)" stroke-width="1.5"></path><path d="M849.48 345.55L995.88 355.29" stroke="hsl(228, 85%, 37.5%)" stroke-width="1.5"></path><path d="M849.48 345.55L678.95 365.32" stroke="hsl(228, 85%, 37.5%)" stroke-width="1.5"></path><path d="M852.3 668.75L852.3 668.75" stroke="hsl(228, 85%, 37.5%)" stroke-width="1.5"></path><path d="M852.3 668.75L979.15 649.83" stroke="hsl(228, 85%, 37.5%)" stroke-width="1.5"></path><path d="M852.3 668.75L819.39 517.83" stroke="hsl(228, 85%, 37.5%)" stroke-width="1.5"></path><path d="M852.3 668.75L998.52 554.44" stroke="hsl(228, 85%, 37.5%)" stroke-width="1.5"></path><path d="M852.3 668.75L661.11 711.19" stroke="hsl(228, 85%, 37.5%)" stroke-width="1.5"></path><path d="M979.15 649.83L979.15 649.83" stroke="hsl(228, 85%, 37.5%)" stroke-width="1.5"></path><path d="M979.15 649.83L998.52 554.44" stroke="hsl(228, 85%, 37.5%)" stroke-width="1.5"></path><path d="M979.15 649.83L1110.3 711.92" stroke="hsl(228, 85%, 37.5%)" stroke-width="1.5"></path><path d="M979.15 649.83L819.39 517.83" stroke="hsl(228, 85%, 37.5%)" stroke-width="1.5"></path><path d="M979.15 649.83L1154.79 513.59" stroke="hsl(228, 85%, 37.5%)" stroke-width="1.5"></path><path d="M1129.21 373.3L1129.21 373.3" stroke="hsl(228, 85%, 37.5%)" stroke-width="1.5"></path><path d="M1129.21 373.3L995.88 355.29" stroke="hsl(228, 85%, 37.5%)" stroke-width="1.5"></path><path d="M1129.21 373.3L1154.79 513.59" stroke="hsl(228, 85%, 37.5%)" stroke-width="1.5"></path><path d="M1129.21 373.3L1156.31 229.33" stroke="hsl(228, 85%, 37.5%)" stroke-width="1.5"></path><path d="M1129.21 373.3L1285.4 411.1" stroke="hsl(228, 85%, 37.5%)" stroke-width="1.5"></path><path d="M1129.21 373.3L1000.23 244.23" stroke="hsl(228, 85%, 37.5%)" stroke-width="1.5"></path><path d="M1241.81 109.32L1241.81 109.32" stroke="hsl(228, 85%, 37.5%)" stroke-width="1.5"></path><path d="M1241.81 109.32L1145.52 82.34" stroke="hsl(228, 85%, 37.5%)" stroke-width="1.5"></path><path d="M1241.81 109.32L1309.51 223.2" stroke="hsl(228, 85%, 37.5%)" stroke-width="1.5"></path><path d="M1241.81 109.32L1156.31 229.33" stroke="hsl(228, 85%, 37.5%)" stroke-width="1.5"></path><path d="M1309.51 223.2L1309.51 223.2" stroke="hsl(228, 85%, 37.5%)" stroke-width="1.5"></path><path d="M1309.51 223.2L1388.04 222.21" stroke="hsl(228, 85%, 37.5%)" stroke-width="1.5"></path><path d="M1309.51 223.2L1397.69 110.55" stroke="hsl(228, 85%, 37.5%)" stroke-width="1.5"></path><path d="M1309.51 223.2L1156.31 229.33" stroke="hsl(228, 85%, 37.5%)" stroke-width="1.5"></path><path d="M1443.96 -88.64L1443.96 -88.64" stroke="hsl(228, 85%, 37.5%)" stroke-width="1.5"></path><path d="M1443.96 -88.64L1555.05 -83.06" stroke="hsl(228, 85%, 37.5%)" stroke-width="1.5"></path><path d="M1443.96 -88.64L1305.82 -98.14" stroke="hsl(228, 85%, 37.5%)" stroke-width="1.5"></path><path d="M1443.96 -88.64L1564.12 75.38" stroke="hsl(228, 85%, 37.5%)" stroke-width="1.5"></path><path d="M1443.96 -88.64L1397.69 110.55" stroke="hsl(228, 85%, 37.5%)" stroke-width="1.5"></path><path d="M1443.96 -88.64L1241.81 109.32" stroke="hsl(228, 85%, 37.5%)" stroke-width="1.5"></path><path d="M1443.96 -88.64L1388.04 222.21" stroke="hsl(228, 85%, 37.5%)" stroke-width="1.5"></path><path d="M-40.62 534.31L-40.62 534.31" stroke="hsl(228, 85%, 37.5%)" stroke-width="1.5"></path><path d="M-40.62 534.31L41.53 512.59" stroke="hsl(228, 85%, 37.5%)" stroke-width="1.5"></path><path d="M-40.62 534.31L-37.91 655.73" stroke="hsl(228, 85%, 37.5%)" stroke-width="1.5"></path><path d="M-40.62 534.31L224.05 511.87" stroke="hsl(228, 85%, 37.5%)" stroke-width="1.5"></path><path d="M-40.62 534.31L200.85 704.41" stroke="hsl(228, 85%, 37.5%)" stroke-width="1.5"></path><path d="M-40.62 534.31L361.1 663.97" stroke="hsl(228, 85%, 37.5%)" stroke-width="1.5"></path><path d="M-37.91 655.73L-37.91 655.73" stroke="hsl(228, 85%, 37.5%)" stroke-width="1.5"></path><path d="M-37.91 655.73L41.53 512.59" stroke="hsl(228, 85%, 37.5%)" stroke-width="1.5"></path><path d="M-37.91 655.73L224.05 511.87" stroke="hsl(228, 85%, 37.5%)" stroke-width="1.5"></path><path d="M-37.91 655.73L361.1 663.97" stroke="hsl(228, 85%, 37.5%)" stroke-width="1.5"></path><path d="M41.53 512.59L41.53 512.59" stroke="hsl(228, 85%, 37.5%)" stroke-width="1.5"></path><path d="M41.53 512.59L224.05 511.87" stroke="hsl(228, 85%, 37.5%)" stroke-width="1.5"></path><path d="M224.05 511.87L224.05 511.87" stroke="hsl(228, 85%, 37.5%)" stroke-width="1.5"></path><path d="M224.05 511.87L382.18 527.03" stroke="hsl(228, 85%, 37.5%)" stroke-width="1.5"></path><path d="M382.18 527.03L382.18 527.03" stroke="hsl(228, 85%, 37.5%)" stroke-width="1.5"></path><path d="M382.18 527.03L361.1 663.97" stroke="hsl(228, 85%, 37.5%)" stroke-width="1.5"></path><path d="M361.1 663.97L361.1 663.97" stroke="hsl(228, 85%, 37.5%)" stroke-width="1.5"></path><path d="M361.1 663.97L525.19 669.56" stroke="hsl(228, 85%, 37.5%)" stroke-width="1.5"></path><path d="M361.1 663.97L224.05 511.87" stroke="hsl(228, 85%, 37.5%)" stroke-width="1.5"></path><path d="M361.1 663.97L559.28 490.69" stroke="hsl(228, 85%, 37.5%)" stroke-width="1.5"></path><path d="M559.28 490.69L559.28 490.69" stroke="hsl(228, 85%, 37.5%)" stroke-width="1.5"></path><path d="M559.28 490.69L680.11 553.09" stroke="hsl(228, 85%, 37.5%)" stroke-width="1.5"></path><path d="M559.28 490.69L678.95 365.32" stroke="hsl(228, 85%, 37.5%)" stroke-width="1.5"></path><path d="M559.28 490.69L382.18 527.03" stroke="hsl(228, 85%, 37.5%)" stroke-width="1.5"></path><path d="M525.19 669.56L525.19 669.56" stroke="hsl(228, 85%, 37.5%)" stroke-width="1.5"></path><path d="M525.19 669.56L661.11 711.19" stroke="hsl(228, 85%, 37.5%)" stroke-width="1.5"></path><path d="M525.19 669.56L559.28 490.69" stroke="hsl(228, 85%, 37.5%)" stroke-width="1.5"></path><path d="M525.19 669.56L680.11 553.09" stroke="hsl(228, 85%, 37.5%)" stroke-width="1.5"></path><path d="M525.19 669.56L382.18 527.03" stroke="hsl(228, 85%, 37.5%)" stroke-width="1.5"></path><path d="M678.95 365.32L678.95 365.32" stroke="hsl(228, 85%, 37.5%)" stroke-width="1.5"></path><path d="M678.95 365.32L680.11 553.09" stroke="hsl(228, 85%, 37.5%)" stroke-width="1.5"></path><path d="M678.95 365.32L819.39 517.83" stroke="hsl(228, 85%, 37.5%)" stroke-width="1.5"></path><path d="M678.95 365.32L995.88 355.29" stroke="hsl(228, 85%, 37.5%)" stroke-width="1.5"></path><path d="M680.11 553.09L680.11 553.09" stroke="hsl(228, 85%, 37.5%)" stroke-width="1.5"></path><path d="M680.11 553.09L819.39 517.83" stroke="hsl(228, 85%, 37.5%)" stroke-width="1.5"></path><path d="M680.11 553.09L661.11 711.19" stroke="hsl(228, 85%, 37.5%)" stroke-width="1.5"></path><path d="M661.11 711.19L661.11 711.19" stroke="hsl(228, 85%, 37.5%)" stroke-width="1.5"></path><path d="M661.11 711.19L559.28 490.69" stroke="hsl(228, 85%, 37.5%)" stroke-width="1.5"></path><path d="M661.11 711.19L819.39 517.83" stroke="hsl(228, 85%, 37.5%)" stroke-width="1.5"></path><path d="M819.39 517.83L819.39 517.83" stroke="hsl(228, 85%, 37.5%)" stroke-width="1.5"></path><path d="M819.39 517.83L849.48 345.55" stroke="hsl(228, 85%, 37.5%)" stroke-width="1.5"></path><path d="M1000.23 244.23L1000.23 244.23" stroke="hsl(228, 85%, 37.5%)" stroke-width="1.5"></path><path d="M1000.23 244.23L995.88 355.29" stroke="hsl(228, 85%, 37.5%)" stroke-width="1.5"></path><path d="M1000.23 244.23L1156.31 229.33" stroke="hsl(228, 85%, 37.5%)" stroke-width="1.5"></path><path d="M1000.23 244.23L849.48 345.55" stroke="hsl(228, 85%, 37.5%)" stroke-width="1.5"></path><path d="M995.88 355.29L995.88 355.29" stroke="hsl(228, 85%, 37.5%)" stroke-width="1.5"></path><path d="M998.52 554.44L998.52 554.44" stroke="hsl(228, 85%, 37.5%)" stroke-width="1.5"></path><path d="M998.52 554.44L1154.79 513.59" stroke="hsl(228, 85%, 37.5%)" stroke-width="1.5"></path><path d="M998.52 554.44L819.39 517.83" stroke="hsl(228, 85%, 37.5%)" stroke-width="1.5"></path><path d="M998.52 554.44L1110.3 711.92" stroke="hsl(228, 85%, 37.5%)" stroke-width="1.5"></path><path d="M998.52 554.44L995.88 355.29" stroke="hsl(228, 85%, 37.5%)" stroke-width="1.5"></path><path d="M1145.52 82.34L1145.52 82.34" stroke="hsl(228, 85%, 37.5%)" stroke-width="1.5"></path><path d="M1156.31 229.33L1156.31 229.33" stroke="hsl(228, 85%, 37.5%)" stroke-width="1.5"></path><path d="M1154.79 513.59L1154.79 513.59" stroke="hsl(228, 85%, 37.5%)" stroke-width="1.5"></path><path d="M1154.79 513.59L1285.4 411.1" stroke="hsl(228, 85%, 37.5%)" stroke-width="1.5"></path><path d="M1154.79 513.59L1297.26 654.05" stroke="hsl(228, 85%, 37.5%)" stroke-width="1.5"></path><path d="M1154.79 513.59L1110.3 711.92" stroke="hsl(228, 85%, 37.5%)" stroke-width="1.5"></path><path d="M1110.3 711.92L1110.3 711.92" stroke="hsl(228, 85%, 37.5%)" stroke-width="1.5"></path><path d="M1110.3 711.92L1297.26 654.05" stroke="hsl(228, 85%, 37.5%)" stroke-width="1.5"></path><path d="M1305.82 -98.14L1305.82 -98.14" stroke="hsl(228, 85%, 37.5%)" stroke-width="1.5"></path><path d="M1305.82 -98.14L1241.81 109.32" stroke="hsl(228, 85%, 37.5%)" stroke-width="1.5"></path><path d="M1285.4 411.1L1285.4 411.1" stroke="hsl(228, 85%, 37.5%)" stroke-width="1.5"></path><path d="M1285.4 411.1L1453.37 376.39" stroke="hsl(228, 85%, 37.5%)" stroke-width="1.5"></path><path d="M1285.4 411.1L1394.72 560.24" stroke="hsl(228, 85%, 37.5%)" stroke-width="1.5"></path><path d="M1285.4 411.1L1309.51 223.2" stroke="hsl(228, 85%, 37.5%)" stroke-width="1.5"></path><path d="M1285.4 411.1L1388.04 222.21" stroke="hsl(228, 85%, 37.5%)" stroke-width="1.5"></path><path d="M1297.26 654.05L1297.26 654.05" stroke="hsl(228, 85%, 37.5%)" stroke-width="1.5"></path><path d="M1297.26 654.05L1418.03 638.17" stroke="hsl(228, 85%, 37.5%)" stroke-width="1.5"></path><path d="M1297.26 654.05L1394.72 560.24" stroke="hsl(228, 85%, 37.5%)" stroke-width="1.5"></path><path d="M1297.26 654.05L1285.4 411.1" stroke="hsl(228, 85%, 37.5%)" stroke-width="1.5"></path><path d="M1397.69 110.55L1397.69 110.55" stroke="hsl(228, 85%, 37.5%)" stroke-width="1.5"></path><path d="M1397.69 110.55L1388.04 222.21" stroke="hsl(228, 85%, 37.5%)" stroke-width="1.5"></path><path d="M1397.69 110.55L1241.81 109.32" stroke="hsl(228, 85%, 37.5%)" stroke-width="1.5"></path><path d="M1397.69 110.55L1564.12 75.38" stroke="hsl(228, 85%, 37.5%)" stroke-width="1.5"></path><path d="M1388.04 222.21L1388.04 222.21" stroke="hsl(228, 85%, 37.5%)" stroke-width="1.5"></path><path d="M1388.04 222.21L1453.37 376.39" stroke="hsl(228, 85%, 37.5%)" stroke-width="1.5"></path><path d="M1388.04 222.21L1241.81 109.32" stroke="hsl(228, 85%, 37.5%)" stroke-width="1.5"></path><path d="M1388.04 222.21L1564.12 75.38" stroke="hsl(228, 85%, 37.5%)" stroke-width="1.5"></path><path d="M1453.37 376.39L1453.37 376.39" stroke="hsl(228, 85%, 37.5%)" stroke-width="1.5"></path><path d="M1453.37 376.39L1608.87 406.08" stroke="hsl(228, 85%, 37.5%)" stroke-width="1.5"></path><path d="M1453.37 376.39L1573.17 512.21" stroke="hsl(228, 85%, 37.5%)" stroke-width="1.5"></path><path d="M1453.37 376.39L1394.72 560.24" stroke="hsl(228, 85%, 37.5%)" stroke-width="1.5"></path><path d="M1453.37 376.39L1309.51 223.2" stroke="hsl(228, 85%, 37.5%)" stroke-width="1.5"></path><path d="M1394.72 560.24L1394.72 560.24" stroke="hsl(228, 85%, 37.5%)" stroke-width="1.5"></path><path d="M1394.72 560.24L1418.03 638.17" stroke="hsl(228, 85%, 37.5%)" stroke-width="1.5"></path><path d="M1418.03 638.17L1418.03 638.17" stroke="hsl(228, 85%, 37.5%)" stroke-width="1.5"></path><path d="M1555.05 -83.06L1555.05 -83.06" stroke="hsl(228, 85%, 37.5%)" stroke-width="1.5"></path><path d="M1564.12 75.38L1564.12 75.38" stroke="hsl(228, 85%, 37.5%)" stroke-width="1.5"></path><path d="M1564.12 75.38L1555.05 -83.06" stroke="hsl(228, 85%, 37.5%)" stroke-width="1.5"></path><path d="M1608.87 406.08L1608.87 406.08" stroke="hsl(228, 85%, 37.5%)" stroke-width="1.5"></path><path d="M1608.87 406.08L1573.17 512.21" stroke="hsl(228, 85%, 37.5%)" stroke-width="1.5"></path><path d="M1608.87 406.08L1569.56 643.22" stroke="hsl(228, 85%, 37.5%)" stroke-width="1.5"></path><path d="M1608.87 406.08L1394.72 560.24" stroke="hsl(228, 85%, 37.5%)" stroke-width="1.5"></path><path d="M1573.17 512.21L1573.17 512.21" stroke="hsl(228, 85%, 37.5%)" stroke-width="1.5"></path><path d="M1573.17 512.21L1569.56 643.22" stroke="hsl(228, 85%, 37.5%)" stroke-width="1.5"></path><path d="M1573.17 512.21L1394.72 560.24" stroke="hsl(228, 85%, 37.5%)" stroke-width="1.5"></path><path d="M1569.56 643.22L1569.56 643.22" stroke="hsl(228, 85%, 37.5%)" stroke-width="1.5"></path><path d="M1569.56 643.22L1418.03 638.17" stroke="hsl(228, 85%, 37.5%)" stroke-width="1.5"></path><path d="M1569.56 643.22L1394.72 560.24" stroke="hsl(228, 85%, 37.5%)" stroke-width="1.5"></path><circle r="25" cx="200.85" cy="704.41" fill="url(#SvgjsRadialGradient1236)"></circle><circle r="25" cx="849.48" cy="345.55" fill="url(#SvgjsRadialGradient1236)"></circle><circle r="25" cx="852.3" cy="668.75" fill="url(#SvgjsRadialGradient1236)"></circle><circle r="25" cx="979.15" cy="649.83" fill="url(#SvgjsRadialGradient1236)"></circle><circle r="25" cx="1129.21" cy="373.3" fill="url(#SvgjsRadialGradient1236)"></circle><circle r="25" cx="1241.81" cy="109.32" fill="url(#SvgjsRadialGradient1236)"></circle><circle r="25" cx="1309.51" cy="223.2" fill="url(#SvgjsRadialGradient1236)"></circle><circle r="25" cx="1443.96" cy="-88.64" fill="url(#SvgjsRadialGradient1236)"></circle><circle r="5" cx="-40.62" cy="534.31" fill="#8592c4"></circle><circle r="5" cx="-37.91" cy="655.73" fill="#8592c4"></circle><circle r="5" cx="41.53" cy="512.59" fill="#8592c4"></circle><circle r="5" cx="224.05" cy="511.87" fill="#8592c4"></circle><circle r="5" cx="382.18" cy="527.03" fill="#8592c4"></circle><circle r="5" cx="361.1" cy="663.97" fill="#8592c4"></circle><circle r="5" cx="559.28" cy="490.69" fill="#8592c4"></circle><circle r="5" cx="525.19" cy="669.56" fill="#8592c4"></circle><circle r="5" cx="678.95" cy="365.32" fill="#8592c4"></circle><circle r="5" cx="680.11" cy="553.09" fill="#8592c4"></circle><circle r="5" cx="661.11" cy="711.19" fill="#8592c4"></circle><circle r="5" cx="819.39" cy="517.83" fill="#8592c4"></circle><circle r="5" cx="1000.23" cy="244.23" fill="#8592c4"></circle><circle r="5" cx="995.88" cy="355.29" fill="#8592c4"></circle><circle r="5" cx="998.52" cy="554.44" fill="#8592c4"></circle><circle r="5" cx="1145.52" cy="82.34" fill="#8592c4"></circle><circle r="5" cx="1156.31" cy="229.33" fill="#8592c4"></circle><circle r="5" cx="1154.79" cy="513.59" fill="#8592c4"></circle><circle r="5" cx="1110.3" cy="711.92" fill="#8592c4"></circle><circle r="5" cx="1305.82" cy="-98.14" fill="#8592c4"></circle><circle r="5" cx="1285.4" cy="411.1" fill="#8592c4"></circle><circle r="5" cx="1297.26" cy="654.05" fill="#8592c4"></circle><circle r="5" cx="1397.69" cy="110.55" fill="#8592c4"></circle><circle r="5" cx="1388.04" cy="222.21" fill="#8592c4"></circle><circle r="5" cx="1453.37" cy="376.39" fill="#8592c4"></circle><circle r="5" cx="1394.72" cy="560.24" fill="#8592c4"></circle><circle r="5" cx="1418.03" cy="638.17" fill="#8592c4"></circle><circle r="5" cx="1555.05" cy="-83.06" fill="#8592c4"></circle><circle r="5" cx="1564.12" cy="75.38" fill="#8592c4"></circle><circle r="5" cx="1608.87" cy="406.08" fill="#8592c4"></circle><circle r="5" cx="1573.17" cy="512.21" fill="#8592c4"></circle><circle r="5" cx="1569.56" cy="643.22" fill="#8592c4"></circle></g><defs><mask id="SvgjsMask1234"><rect width="1440" height="560" fill="#ffffff"></rect></mask><linearGradient x1="84.72%" y1="-39.29%" x2="15.28%" y2="139.29%" gradientUnits="userSpaceOnUse" id="SvgjsLinearGradient1235"><stop stop-color="#0e2a47" offset="0"></stop><stop stop-color="rgba(0, 0, 0, 1)" offset="1"></stop></linearGradient><radialGradient id="SvgjsRadialGradient1236"><stop stop-color="#ffffff" offset="0.1"></stop><stop stop-color="rgba(11, 36, 136, 1)" offset="0.2"></stop><stop stop-color="rgba(11, 36, 136, 0)" offset="1"></stop></radialGradient></defs></svg>